<?xml version="1.0" encoding="UTF-8"?>
<svg id="Layer_1" data-name="Layer 1" xmlns="http://www.w3.org/2000/svg" version="1.1" viewBox="0 0 512 512">
  <defs>
    <style>
      .cls-1 {
        fill: #0c1f3a;
        stroke-width: 0px;
      }
    </style>
  </defs>
  <path class="cls-1" d="M297.3,496.9c14.3-12.1,22.6-30,22.6-48.8v-73l159-91c30-16,41.3-53.3,25.2-83.2-4-7.5-9.5-14.1-16.2-19.3-15-10.8-34.3-13.6-51.8-7.7l-116.3,41.4v-97.1l40.5-30.2c14.7-9.6,23.5-25.9,23.5-43.5h0c0-24.4-19.7-44.3-44.2-44.4-5.2,0-10.4.9-15.3,2.7l-68.5,40L187.3,2.8c-23-8.4-48.4,3.4-56.8,26.4-1.8,4.9-2.7,10-2.7,15.2h0c0,17.5,8.8,33.9,23.5,43.5l40.5,30.3v97.1l-116.3-41.4c-17.5-5.9-36.8-3-51.8,7.7-26.7,21-31.3,59.7-10.2,86.4,5.3,6.7,11.8,12.2,19.3,16.2l159,91v73c.3,35.5,29.3,64,64.7,63.7,14.9-.1,29.3-5.4,40.7-14.9h0Z"/>
</svg>