<?xml version="1.0" encoding="UTF-8"?>
<svg id="Camada_1" data-name="Camada 1" xmlns="http://www.w3.org/2000/svg" viewBox="0 0 610.81 384">
  <defs>
    <style>
      .cls-1 {
        fill: #03a691;
        stroke-width: 0px;
      }
    </style>
  </defs>
  <path class="cls-1" d="M610.74,246.06c-.05-20.14-15.43-35.34-35.77-35.35h-18.02c-1.06-1.86-2.58-3.27-4.49-4.2,0-2.34.01-4.76-.03-7.15-.04-2.03-.12-4.03-.68-6.1-1.91-7.09-6.76-11.93-14.03-13.99-.31-.09-.61-.18-.92-.27l-1.18-.35h-55.07l-.78.26c-.16.05-.32.11-.49.17-.13.05-.25.1-.38.13-8.69,2.21-14.64,9.68-14.82,18.58-.06,2.87-.04,5.74-.03,8.52,0,.09,0,.18,0,.27-2.04.96-3.43,2.16-4.52,4.12-.88,0-1.77,0-2.65,0-5.09-.01-10.37-.02-15.58.04-2.84.04-5.52.31-7.96.81-16,3.3-27.63,17.46-27.67,33.66-.08,36.63-.08,73.54,0,109.69.03,16.02,13.39,29.06,29.77,29.08,14.3.01,28.6.02,42.91.02,9.7,0,19.41,0,29.12,0h29.08s13.52,0,13.52,0c10.15,0,20.29,0,30.44,0,17.2-.02,30.2-12.89,30.23-29.95.08-41.36.08-75.67,0-107.98ZM507.38,299.32l-5.84-4.01,2.91-4.22c3.93-5.71,7.87-11.42,11.78-17.15,1.59-.15,3.17-.33,4.74-.52.39,1.51.76,3.01,1.13,4.5-4.87,7.11-9.77,14.21-14.71,21.39ZM508.6,232.05c5.96-.14,12.28,4.77,13.83,10.76.78,2.98.7,5.89-.25,8.87-2.95.29-5.9.63-8.77.96-1.35.16-2.7.31-4.05.46-3.42.38-6.25,2.06-8.17,4.86-2.84,4.13-5.68,8.25-8.53,12.38-4.92,7.13-9.83,14.26-14.73,21.41-3.6,5.25-2.43,11.67,2.78,15.28,7.74,5.37,15.54,10.72,23.18,15.9,5.3,3.59,11.57,2.4,15.25-2.91,5.34-7.71,10.66-15.43,15.98-23.16l7.2-10.45c2-2.9,2.58-6.2,1.68-9.56-1.28-4.76-2.46-9.49-3.45-13.54,5.04-10.7,5.29-21.13.8-31.1h6.75v130.22h-79.75v-130.29c3.31,0,6.63.03,9.94.04,9.92.06,20.18.12,30.31-.15ZM485.62,200.1c15.12,0,30.24,0,45.36,0v6.41c-1.92.93-3.45,2.33-4.51,4.12h-36.48c-1.05-1.78-2.54-3.17-4.39-4.09-.02-2.21-.03-4.34.03-6.45ZM569.8,362.53v-130.48c3.47.11,6.75.22,9.79.84,5.34,1.08,9.3,6.02,9.65,12.01.04.78.07,1.5.07,2.19v29.21c0,25.61,0,51.22.03,76.83,0,4.86-1.66,6.62-3.29,7.7-1.38.91-2.84,1.51-3.83,1.56-4,.22-8.01.18-12.26.14-.05,0-.1,0-.15,0ZM427.12,277.1c0-10.09,0-20.19,0-30.28,0-8.9,5.75-14.65,14.63-14.66,1.29,0,2.58,0,3.88,0h1.02v130.39h-5.56c-1.77,0-3.54,0-5.31,0-5.25-.03-8.64-3.4-8.65-8.57-.02-15.42-.01-30.84,0-46.26v-17.99s0-12.62,0-12.62Z"/>
  <g>
    <path class="cls-1" d="M171.44,0c.71.44,1.41.91,2.14,1.32,4.59,2.57,6.96,7.52,5.83,12.26-1.22,5.14-5.38,8.64-10.68,8.89-1.87.09-3.74.02-5.61.03-1.84,0-3.68,0-5.71,0v91.5c2.87,0,5.8,0,8.73,0,21.88.02,35.99,14.17,35.99,36.13,0,58.6,0,117.19,0,175.79,0,15.24-6.68,26.24-20.46,32.89-.93.45-1.78,1.89-1.91,2.97-.29,2.34-.28,4.76-.05,7.11.68,6.97-1.81,12.11-8.27,15.11h-5.99c-10.62-4.42-7.81-14.16-8.37-22.31H44.99c-.36,8.42,2.18,17.9-8.28,22.31h-5.99c-6.48-2.99-8.95-8.13-8.27-15.11.23-2.35.24-4.77-.05-7.11-.13-1.08-.99-2.52-1.92-2.97C6.55,352.08-.02,340.95,0,325.55c.06-58.47.02-116.95.03-175.42,0-21.92,14.15-36.12,35.99-36.13,2.93,0,5.86,0,8.72,0V22.49c-3.77,0-7.36.07-10.95-.02-5.53-.14-9.82-3.65-11.06-8.9-1.15-4.85,1.34-9.86,6.16-12.46C29.52.78,30.11.38,30.71,0c46.91,0,93.82,0,140.73,0ZM22.48,237.49c0,29.49,0,58.97,0,88.46,0,8.72,4.37,13.05,13.15,13.05,43.64,0,87.29,0,130.93,0,8.74,0,13.11-4.37,13.11-13.1,0-58.72,0-117.44,0-176.16,0-8.97-4.31-13.23-13.34-13.23-43.52,0-87.04,0-130.55,0-9.01,0-13.29,4.28-13.29,13.28,0,29.24,0,58.47,0,87.71ZM67.55,113.73h66.91V22.7h-66.91v91.03Z"/>
    <path class="cls-1" d="M256.77,384c-6.48-2.99-9.1-8.15-8.21-15.1.77-6.02-.72-9.73-6.81-13.04-10.43-5.67-15.57-15.72-15.61-27.7-.14-45.24-.15-90.49,0-135.73.06-18.53,14.88-33.11,33.42-33.41,3.61-.06,7.23,0,11.14,0v-90.01c-3.23,0-6.54.02-9.86,0-7.23-.06-12.31-4.73-12.29-11.29.02-6.54,5.1-11.19,12.36-11.2,29.19-.02,58.38-.02,87.57,0,7.26,0,12.33,4.68,12.32,11.24,0,6.57-5.06,11.19-12.32,11.25-3.22.03-6.44,0-9.89,0v90.45c5.44,0,10.86-.65,16.06.12,14.52,2.17,24.71,12.19,27.93,26.57.16.72.46,1.41.69,2.11v144.75c-.28.79-.64,1.56-.84,2.37-2.3,8.97-7.24,16.05-15.08,20.99-2.07,1.3-4.31,2.31-6.53,3.48,0,3.12-.23,6.13.05,9.09.64,6.97-1.84,12.07-8.28,15.07h-5.99c-10.62-4.42-7.81-14.16-8.37-22.31h-67.27c-.09,8.49,2.18,17.86-8.19,22.31h-5.99ZM248.54,260.26c0,21.98-.01,43.97,0,65.95,0,8.27,4.46,12.77,12.67,12.78,28.92.02,57.85.02,86.77,0,8.43,0,12.83-4.46,12.83-13,0-43.85,0-87.69,0-131.54,0-8.52-4.4-12.95-12.86-12.96-28.8-.01-57.6,0-86.4,0-8.7,0-13.01,4.37-13.01,13.18,0,21.86,0,43.72,0,65.58ZM293.51,158.76h22.13v-89.46h-22.13v89.46Z"/>
    <path class="cls-1" d="M134.76,181.5c0,3.96.06,7.43-.01,10.91-.14,6.66-4.96,11.59-11.23,11.58-6.27,0-11.07-4.95-11.2-11.6-.07-3.47-.01-6.95-.01-10.88-1.59,0-2.91,0-4.24,0-17.08,0-34.16.05-51.23-.02-8.88-.04-14.46-8.35-10.77-15.97,2.24-4.64,6.17-6.54,11.25-6.53,22.31.05,44.63.02,66.94.02,6.98,0,13.96-.04,20.94.01,6.96.05,11.97,4.75,12,11.17.04,6.44-4.95,11.21-11.87,11.31-3.35.05-6.7,0-10.57,0Z"/>
    <path class="cls-1" d="M270.99,259.85c0-14.36-.01-28.71,0-43.07,0-7.62,4.49-12.73,11.15-12.78,6.67-.05,11.29,5.07,11.3,12.63.02,29.09.02,58.17,0,87.26,0,7.53-4.67,12.66-11.33,12.59-6.53-.07-11.09-5.14-11.11-12.44-.03-14.73,0-29.46,0-44.19Z"/>
    <path class="cls-1" d="M338.36,260.22c0,14.48.01,28.96,0,43.44,0,7.65-4.45,12.75-11.1,12.83-6.79.08-11.34-5.1-11.35-12.96,0-29.09-.02-58.17,0-87.26.01-8.87,7.58-14.49,15.28-11.46,4.5,1.77,7.14,5.81,7.15,11.21.03,14.73.01,29.46.01,44.19Z"/>
  </g>
</svg>