<?xml version="1.0" encoding="UTF-8"?>
<svg id="Layer_1" data-name="Layer 1" xmlns="http://www.w3.org/2000/svg" version="1.1" viewBox="0 0 512 512">
  <defs>
    <style>
      .cls-1 {
        fill: #0f8762;
        stroke-width: 0px;
      }
    </style>
  </defs>
  <path class="cls-1" d="M256,0C114.8,0,0,114.8,0,256s114.8,256,256,256,256-114.8,256-256S397.2,0,256,0ZM388.3,224.3l-94.4,92.7c-16.7,16.4-38.2,24.6-59.7,24.6s-42.6-8-59.2-24.1l-40.5-39.8c-8.4-8.3-8.5-21.8-.3-30.2,8.2-8.4,21.8-8.5,30.2-.3l40.4,39.7c16.6,16,42.7,15.9,59.3-.4l94.4-92.7c8.4-8.3,21.8-8.1,30.2.3,8.3,8.4,8.1,21.9-.3,30.2h0Z"/>
</svg>