<?xml version="1.0" encoding="UTF-8"?>
<svg id="Layer_1" data-name="Layer 1" xmlns="http://www.w3.org/2000/svg" version="1.1" viewBox="0 0 512 512">
  <defs>
    <style>
      .cls-1 {
        fill: #0f8762;
        stroke-width: 0px;
      }
    </style>
  </defs>
  <path class="cls-1" d="M277.3,426.7c58.9,0,106.6-47.8,106.7-106.7v-186.8c0-22.7-8.9-44.4-25-60.4l-47.8-47.8C295.2,8.9,273.5,0,250.8,0h-101.5C90.5,0,42.7,47.8,42.7,106.7v213.3c0,58.9,47.8,106.6,106.7,106.7h128ZM85.3,320V106.7c0-35.3,28.7-64,64-64,0,0,104.9.3,106.7.5v42.2c0,23.6,19.1,42.7,42.7,42.7h42.2c.2,1.7.5,192,.5,192,0,35.3-28.7,64-64,64h-128c-35.3,0-64-28.7-64-64ZM469.3,170.7v234.7c0,58.9-47.8,106.6-106.7,106.7h-192c-11.8,0-21.3-9.6-21.3-21.3s9.6-21.3,21.3-21.3h192c35.3,0,64-28.7,64-64v-234.7c0-11.8,9.6-21.3,21.3-21.3s21.3,9.6,21.3,21.3Z"/>
</svg>