<?xml version="1.0" encoding="UTF-8"?>
<svg id="Camada_1" data-name="Camada 1" xmlns="http://www.w3.org/2000/svg" viewBox="0 0 1080 428.53">
  <defs>
    <style>
      .cls-1 {
        fill: #0C1F3A;
        stroke-width: 0px;
      }
    </style>
  </defs>
  <polygon class="cls-1" points="133.43 330.82 163.78 330.82 163.78 120.89 133.43 106.54 133.43 330.82"/>
  <path class="cls-1" d="M68.48,149.05c1-3.37,2.54-6.19,4.6-8.46,2.06-2.26,4.63-3.95,7.7-5.06,3.07-1.11,6.67-1.66,10.8-1.66,2.21,0,4.78.15,7.7.45,2.92.3,5.69.81,8.31,1.51l-8.16-29.75c-1.61-.4-3.68-.68-6.19-.83-2.52-.15-5.03-.23-7.55-.23-8.16,0-15.28,1.21-21.37,3.62-6.09,2.42-11.18,6.02-15.26,10.8-4.08,4.78-7.12,10.77-9.14,17.97-2.02,7.2-3.02,15.58-3.02,25.15v17.07H10.03v27.79h26.88v123.39h30.06v-123.39h32.77v-27.79h-32.77v-18.73c0-4.53.5-8.48,1.51-11.86Z"/>
  <rect class="cls-1" x="211.96" y="179.64" width="30.36" height="151.18"/>
  <path class="cls-1" d="M241.11,110.77c-1.81-1.81-3.93-3.25-6.34-4.3-2.42-1.06-4.98-1.59-7.7-1.59s-5.26.53-7.63,1.59c-2.37,1.06-4.41,2.49-6.12,4.3-1.71,1.81-3.07,3.93-4.08,6.34-1.01,2.42-1.51,4.98-1.51,7.7s.5,5.44,1.51,7.85c1.01,2.42,2.36,4.53,4.08,6.34,1.71,1.81,3.75,3.22,6.12,4.23,2.36,1.01,4.91,1.51,7.63,1.51s5.29-.5,7.7-1.51c2.42-1,4.53-2.42,6.34-4.23,1.81-1.81,3.22-3.93,4.23-6.34,1-2.42,1.51-5.03,1.51-7.85s-.5-5.29-1.51-7.7c-1.01-2.42-2.42-4.53-4.23-6.34Z"/>
  <path class="cls-1" d="M406.64,197.16c-3.02-3.62-6.29-6.69-9.82-9.21-3.53-2.52-7.25-4.58-11.18-6.19-3.93-1.61-8.08-2.79-12.46-3.55-4.38-.76-8.98-1.13-13.82-1.13-10.98,0-21.12,2.04-30.43,6.12-9.31,4.08-17.37,9.64-24.16,16.69-6.8,7.05-12.11,15.36-15.93,24.92-3.83,9.57-5.74,19.84-5.74,30.81s1.91,21.4,5.74,30.96c3.83,9.57,9.11,17.87,15.86,24.92,6.74,7.05,14.8,12.59,24.16,16.61,9.36,4.02,19.53,6.04,30.51,6.04,4.83,0,9.51-.35,14.05-1.06,4.53-.7,8.86-1.86,12.99-3.47,4.13-1.61,8.03-3.68,11.7-6.19,3.67-2.51,7.02-5.59,10.04-9.21v7.1c0,8.16-1.08,15.68-3.25,22.58-2.17,6.9-5.51,12.86-10.04,17.9-4.53,5.03-10.27,8.96-17.22,11.78-6.95,2.82-15.21,4.23-24.77,4.23-11.28,0-22.1-2.17-32.47-6.5-10.37-4.33-20.44-10.87-30.21-19.63l10.42,37.45c4.23,2.92,8.53,5.46,12.91,7.63,4.38,2.17,8.83,3.98,13.37,5.44,4.53,1.46,9.11,2.54,13.74,3.25,4.63.7,9.36,1.06,14.2,1.06,12.89,0,24.49-1.94,34.81-5.81,10.32-3.88,19.11-9.44,26.35-16.69s12.81-16.08,16.69-26.51c3.88-10.42,5.82-22.23,5.82-35.42v-142.42h-31.87v17.52ZM404.75,276.75c-2.26,6.14-5.49,11.33-9.67,15.56-4.18,4.23-9.16,7.45-14.95,9.67-5.79,2.21-12.21,3.32-19.26,3.32s-13.49-1.26-19.33-3.78c-5.84-2.52-10.82-5.99-14.95-10.42-4.13-4.43-7.35-9.67-9.67-15.71-2.32-6.04-3.47-12.59-3.47-19.64s1.16-13.77,3.47-19.86c2.32-6.09,5.54-11.35,9.67-15.78,4.13-4.43,9.11-7.9,14.95-10.42,5.84-2.52,12.28-3.78,19.33-3.78s13.47,1.11,19.26,3.32c5.79,2.22,10.77,5.46,14.95,9.74,4.18,4.28,7.4,9.52,9.67,15.71,2.26,6.19,3.4,13.22,3.4,21.07s-1.13,14.85-3.4,20.99Z"/>
  <path class="cls-1" d="M710.63,304.24c-3.63,0-6.77-.48-9.44-1.44-2.67-.95-4.88-2.36-6.64-4.23-1.76-1.86-3.1-4.2-4-7.02-.91-2.82-1.36-6.09-1.36-9.82v-74.31h37.15v-27.79h-37.15v-48.18h-30.36v48.18h-28.24v27.79h28.24v77.03c0,8.16.93,15.28,2.79,21.37,1.86,6.09,4.63,11.18,8.31,15.26,3.67,4.08,8.3,7.12,13.89,9.14,5.59,2.01,12.06,3.02,19.41,3.02,4.83,0,9.26-.23,13.29-.68,4.02-.45,7.75-1.13,11.18-2.04v-28.85c-3.02.81-5.97,1.44-8.84,1.89s-5.61.68-8.23.68Z"/>
  <path class="cls-1" d="M590.92,195.8c-4.33-5.94-9.94-10.55-16.84-13.82-6.9-3.27-15.28-4.91-25.15-4.91-4.83,0-9.34.43-13.52,1.28-4.18.86-8.11,2.19-11.78,4-3.68,1.81-7.17,4.15-10.5,7.02-3.32,2.87-6.65,6.32-9.97,10.35v-78.84l-30.36-14.35v224.28h30.36v-75.06c0-9.76.93-17.87,2.79-24.32,1.86-6.44,4.48-11.55,7.85-15.33,3.37-3.78,7.42-6.42,12.16-7.93,4.73-1.51,10.02-2.27,15.86-2.27s10.6.78,14.58,2.34c3.97,1.56,7.22,3.95,9.74,7.17,2.52,3.22,4.33,7.3,5.44,12.23,1.11,4.93,1.66,10.82,1.66,17.67v85.48h30.21v-85.48c0-10.27-1.01-19.61-3.02-28.02-2.02-8.41-5.19-15.58-9.51-21.52Z"/>
  <path class="cls-1" d="M816.99,220.27c4.63-4.43,10.04-7.9,16.24-10.42,6.19-2.52,12.81-3.78,19.86-3.78,4.63,0,9.03.25,13.21.76,4.18.5,8.23,1.28,12.16,2.34,3.93,1.06,7.78,2.47,11.55,4.23,3.78,1.76,7.63,3.9,11.55,6.42l-8.91-33.08c-5.84-3.22-12.03-5.61-18.58-7.17-6.55-1.56-13.54-2.34-20.99-2.34-11.48,0-22.15,2.02-32.02,6.04-9.87,4.03-18.48,9.57-25.83,16.61-7.35,7.05-13.12,15.33-17.29,24.84-4.18,9.52-6.27,19.81-6.27,30.89s1.96,20.79,5.89,30.36c3.93,9.57,9.54,17.9,16.84,25,7.3,7.1,16.16,12.74,26.58,16.92,10.42,4.18,22.12,6.27,35.11,6.27,8.66,0,16.31-.78,22.96-2.34,6.64-1.56,13.29-4.45,19.94-8.68v-30.66c-7.05,4.83-13.92,8.18-20.62,10.04-6.7,1.86-14.12,2.79-22.28,2.79-8.56,0-16.21-1.31-22.96-3.93-6.75-2.62-12.41-6.19-16.99-10.72-4.58-4.53-8.08-9.79-10.5-15.78-2.42-5.99-3.62-12.36-3.62-19.11,0-7.15,1.33-13.74,4-19.78,2.67-6.04,6.32-11.28,10.95-15.71Z"/>
  <path class="cls-1" d="M1069.97,176.47c.05-19.94-15.6-37.91-34.88-40.05h0c-11.59-1.27-23.42-1.19-34.87-1.1-3.15.02-6.3.04-9.46.04-2.98,0-4.17-.68-5.59-3.19-13.73-24.28-27.86-48.87-41.52-72.65l-3.65-6.36c-.61-1.07-1.22-2.14-1.82-3.21-2.21-3.93-4.51-7.99-7.12-11.81-10.91-15.92-32.16-21.41-49.43-12.77-17.77,8.92-24.8,26.51-18.37,45.92,1.5,4.54,3.17,9.07,4.78,13.45.96,2.62,1.93,5.24,2.86,7.87,3.68,10.36,7.34,20.72,11.12,31.41l3.97,11.24h-40.61c-.39,0-.81.03-1.23.07-.18.02-.36.04-.52.05-1.16-.61-2.48-1.34-3-2.1-1.97-2.77-3.88-5.68-5.72-8.51-2.77-4.23-5.63-8.6-8.81-12.69-11.53-14.81-31.95-18.87-48.56-9.66-16.39,9.1-22.12,25.81-15.32,44.69.99,2.72,2.01,5.43,3.02,8.14,2.14,5.69,4.35,11.58,6.19,17.45.34,1.06.51,2.35.49,3.74l-.04,3.23h32.93l.03-3.17c.03-3.18-.6-6.32-1.91-9.6-4.82-12-8.43-21.85-11.37-31-.6-1.88-.27-4.92.19-5.54,1.02-.86,4.27-1.35,6.79-.66.64.17,2.41.99,5.13,4.84,5.69,8,10.97,16.06,15.84,23.59,3.61,5.57,8.69,8.29,15.54,8.29h.1c14.03-.09,28.3-.08,42.1-.07,9.77,0,19.54.01,29.31-.01,6.38-.02,11.5-2.31,14.42-6.45,2.92-4.13,3.36-9.73,1.24-15.76-8.56-24.46-17.4-49.28-25.95-73.29l-3.22-9.05c-1.55-4.34-.89-5.98.77-7.36,1.92-1.61,4.93-3.07,8.41-.88,1.99,1.24,3.95,3.33,5.26,5.59,11.84,20.45,23.76,41.33,35.29,61.52l8.17,14.3c1.24,2.17,2.5,4.34,3.76,6.5,2.77,4.76,5.64,9.69,8.25,14.6,3.85,7.29,9.45,10.62,17.68,10.4,16.83-.37,33.59-.22,46.31-.04,7.32.11,11.79,5.29,11.75,10.03l-.03,3.22h.36l-47.11,110.08-45.01-110.1h-31.72l61.92,145.29-27.94,66.6,26.13,12.39,94.7-224.28h0v-3.17Z"/>
</svg>