<?xml version="1.0" encoding="UTF-8"?>
<svg id="Layer_1" data-name="Layer 1" xmlns="http://www.w3.org/2000/svg" version="1.1" viewBox="0 0 24 24">
  <defs>
    <style>
      .cls-1 {
        fill: #fff;
        stroke-width: 0px;
      }
    </style>
  </defs>
  <path class="cls-1" d="M19,12l3.5-3.5c2-1.9,2-5.1,0-7.1C21.6.5,20.3,0,19,0s-2.6.5-3.5,1.5c-1.9,2-1.9,5.1,0,7.1l3.5,3.4ZM16.9,2.9c.6-.6,1.3-.9,2.1-.9s1.6.3,2.1.9c1.2,1.2,1.2,3.1,0,4.2l-2.1,2.1-2.1-2.1c-1.2-1.2-1.2-3.1,0-4.2h0ZM9,20v1h-2.5l-1.9,2.4c-.2.4-.6.6-1,.6h-1.1l1.2-3H1.6l-1.5-1.8c-.3-.5,0-1.2.7-1.2s.4,0,.6.2l1.1.8h1.2l-1.2-3h1.1c.4,0,.8.2,1,.6l1.9,2.4h1.2c.8,0,1.3.4,1.3,1h0ZM24,17c0,2.2-1.8,4-4,4h-9v-1c0-.4,0-.7-.2-1h9.2c1.1,0,2-.9,2-2s-.9-2-2-2h-11c-2.2,0-4-1.8-4-4s1.8-4,4-4h3.3c.2.7.5,1.4,1,2h-4.3c-1.1,0-2,.9-2,2s.9,2,2,2h11c2.2,0,4,1.8,4,4Z"/>
  <circle class="cls-1" cx="19" cy="4.8" r="1"/>
</svg>