<?xml version="1.0" encoding="UTF-8"?>
<svg id="arrow-circle-down" xmlns="http://www.w3.org/2000/svg" version="1.1" viewBox="0 0 512 512">
  <defs>
    <style>
      .cls-1 {
        fill: #000;
        stroke-width: 0px;
      }
    </style>
  </defs>
  <path class="cls-1" d="M490.7,341.3H57.2l.3-.3,47.9-48.7c8.6-8.1,9-21.6.9-30.2s-21.6-9-30.2-.9c-.4.4-.8.8-1.2,1.2l-47.8,48.6c-3.5,3.5-8.3,8.8-13.3,14.4-18.5,20.9-18.5,52.3,0,73.2,5,5.6,9.8,10.9,13.2,14.3l47.9,48.7c8.6,8.1,22.1,7.6,30.2-.9,7.6-8.1,7.7-20.7.3-28.9l-46.8-47.7h432.1c11.8,0,21.3-9.6,21.3-21.3s-9.6-21.3-21.3-21.3v-.2Z"/>
  <path class="cls-1" d="M21.3,170.7h432.1l-46.8,47.6c-8.6,8.1-9,21.6-.9,30.2s21.6,9,30.2.9c.4-.4.8-.8,1.2-1.2l47.8-48.6c3.5-3.5,8.3-8.8,13.3-14.4,18.5-20.9,18.5-52.3,0-73.2-5-5.6-9.8-10.9-13.2-14.3l-47.9-48.6c-8.6-8.1-22.1-7.6-30.2.9-7.6,8.1-7.7,20.7-.3,28.9l48,48.9.2.2H21.3c-11.8,0-21.3,9.6-21.3,21.3s9.6,21.3,21.3,21.3h0Z"/>
</svg>