<?xml version="1.0" encoding="UTF-8"?>
<svg id="Layer_1" data-name="Layer 1" xmlns="http://www.w3.org/2000/svg" version="1.1" viewBox="0 0 512 512">
  <defs>
    <style>
      .cls-1 {
        fill: #fff;
        stroke-width: 0px;
      }
    </style>
  </defs>
  <path class="cls-1" d="M496.8,214.6c-12.1-14.3-30-22.6-48.8-22.6h-73l-91-159c-16-30-53.3-41.3-83.2-25.2-7.5,4-14.1,9.5-19.3,16.2-10.8,15-13.6,34.3-7.7,51.8l41.4,116.3h-97.1l-30.2-40.5c-9.6-14.7-25.9-23.5-43.5-23.5h0C19.9,127.9,0,147.7,0,172.2c0,5.2.9,10.4,2.7,15.3l40,68.5L2.7,324.5c-8.4,23,3.4,48.4,26.4,56.8,4.9,1.8,10,2.7,15.2,2.7h0c17.5,0,33.9-8.8,43.5-23.5l30.3-40.5h97.1l-41.4,116.3c-5.9,17.5-3,36.8,7.7,51.8,21,26.7,59.7,31.3,86.4,10.2,6.7-5.3,12.2-11.8,16.2-19.3l91-159h73c35.5-.3,64-29.3,63.7-64.7-.1-14.9-5.4-29.3-14.9-40.7h0Z"/>
</svg>