<?xml version="1.0" encoding="UTF-8"?>
<svg id="Layer_1" data-name="Layer 1" xmlns="http://www.w3.org/2000/svg" version="1.1" viewBox="0 0 512 512">
  <defs>
    <style>
      .cls-1 {
        fill: #0c1f3a;
        stroke-width: 0px;
      }
    </style>
  </defs>
  <path class="cls-1" d="M394.7,512H117.3c-64.7,0-117.3-52.7-117.3-117.3v-183.8c0-39,19.3-75.4,51.7-97.3L190.4,20.1c39.8-26.9,91.4-26.9,131.3,0l138.6,93.6c32.4,21.8,51.7,58.2,51.7,97.3v183.8c0,64.7-52.7,117.3-117.3,117.3ZM256,63.9c-10.4,0-20.8,3.1-29.8,9.2l-138.7,93.5c-14.7,9.9-23.5,26.5-23.5,44.2v183.8c0,29.4,23.9,53.3,53.3,53.3h277.3c29.4,0,53.3-23.9,53.3-53.3v-183.7c0-17.7-8.8-34.3-23.5-44.2l-138.7-93.6c-9.1-6.1-19.5-9.2-29.8-9.2Z"/>
</svg>